<svg version="1.1" id="Layer_1" xmlns="http://www.w3.org/2000/svg" xmlns:xlink="http://www.w3.org/1999/xlink" x="0px" y="0px"
	 width="100%" viewBox="0 0 500 500" enable-background="new 0 0 500 500" xml:space="preserve">
<path fill="#000000" opacity="1.000000" stroke="none" 
	d="
M501.000000,317.000000 
	C501.000000,378.306396 501.000000,439.612762 501.000000,500.959595 
	C334.433502,500.959595 167.866989,500.959595 1.000000,500.959595 
	C1.000000,398.645416 1.000000,296.290558 1.443501,193.467850 
	C9.427213,193.463211 16.967424,193.926422 24.308315,194.377396 
	C26.218021,189.156174 27.430441,184.657486 21.611681,181.480286 
	C23.519087,180.818558 25.251724,180.760010 25.839769,179.909790 
	C27.479530,177.538956 28.855076,174.916870 29.843817,172.214325 
	C30.079472,171.570206 28.611301,169.767090 27.562136,169.275757 
	C20.885553,166.149033 14.106814,163.240433 7.265362,160.217422 
	C6.530021,163.087509 5.795434,165.954666 4.995299,169.077652 
	C9.123899,170.937973 12.981189,172.676025 17.522043,174.722107 
	C14.275374,176.003937 11.691088,177.024246 8.001195,178.481079 
	C10.656839,180.859589 12.691139,182.681580 15.810710,185.475601 
	C9.965525,184.893250 5.482762,184.446625 1.000000,184.000000 
	C1.000000,123.027344 1.000000,62.054684 1.000000,1.041013 
	C167.564606,1.041013 334.129242,1.041013 501.000000,1.041013 
	C501.000000,97.354553 501.000000,193.709427 500.531342,290.532166 
	C489.165527,291.000000 478.268372,291.000000 467.343750,291.000000 
	C467.343750,299.915070 467.343750,308.408539 467.343750,317.000000 
	C478.791504,317.000000 489.895752,317.000000 501.000000,317.000000 
M41.124157,147.005890 
	C40.098537,145.997116 36.655605,149.262772 37.398613,144.442612 
	C37.750072,142.162582 32.166962,141.080795 30.170153,142.901688 
	C30.051275,143.010086 29.600740,142.754807 29.140839,142.621185 
	C29.449938,141.299805 29.762623,139.963104 30.406115,137.212204 
	C27.696072,137.212204 24.427492,136.284271 23.480942,137.373749 
	C19.502741,141.952652 16.218723,147.134659 12.440594,152.432404 
	C19.268600,157.512650 25.736002,162.324600 32.375957,167.264923 
	C34.009895,164.999039 35.510059,162.914276 37.014828,160.832825 
	C39.945507,156.778992 42.388405,152.213379 45.946671,148.816452 
	C49.622910,145.306870 54.396736,142.952423 58.667355,140.058609 
	C63.636509,136.691437 63.369389,130.835571 58.267082,127.632004 
	C57.258087,126.998497 56.242500,125.647636 56.084560,124.509041 
	C55.283730,118.735748 51.280312,116.246452 46.114738,119.054565 
	C40.948589,121.862991 36.112976,125.279465 31.081741,128.461487 
	C35.061241,134.571472 38.928146,140.508575 42.345440,146.742386 
	C42.206127,146.855667 42.066811,146.968948 41.124157,147.005890 
M291.224304,316.991608 
	C300.055328,316.994385 308.889740,317.120911 317.713928,316.876678 
	C319.164886,316.836548 321.561462,315.407990 321.850708,314.215820 
	C327.312836,291.702332 332.532257,269.129913 337.781921,246.565033 
	C339.887360,237.515244 341.943848,228.454086 344.113800,219.000854 
	C332.603180,219.000854 321.457245,218.890030 310.321014,219.169144 
	C309.184418,219.197617 307.470703,221.408859 307.107819,222.875259 
	C305.212494,230.533981 303.677094,238.281464 301.997375,245.993912 
	C300.175018,254.361450 298.331573,262.724396 296.278534,272.087097 
	C294.390442,269.756134 293.136444,268.304352 291.987854,266.773468 
	C286.737457,259.775818 281.370148,252.858322 276.361938,245.690491 
	C274.527374,243.064850 274.125183,243.496506 272.537811,245.855484 
	C268.569183,251.753250 264.231171,257.404846 259.975311,263.105927 
	C257.818726,265.994843 255.519180,268.777008 252.675400,272.378510 
	C248.891937,254.256668 245.467896,237.678329 241.872986,221.137146 
	C241.683304,220.264450 240.053680,219.105820 239.081573,219.093506 
	C227.780762,218.950119 216.477493,219.001770 204.842239,219.001770 
	C206.296005,224.716812 207.735886,229.980911 208.969284,235.292923 
	C215.010620,261.311951 221.000793,287.342834 226.995926,313.372589 
	C227.499969,315.561035 228.139893,317.126038 231.035934,317.069519 
	C240.524490,316.884277 250.018906,316.999908 259.320984,316.999908 
	C264.389404,308.538940 269.336426,300.280670 274.347321,291.915741 
	C275.333740,293.498230 276.158356,294.860962 277.021332,296.198914 
	C281.468048,303.093079 285.924622,309.980896 291.224304,316.991608 
M349.000000,251.500000 
	C349.000000,273.263153 349.000000,295.026306 349.000000,317.000000 
	C369.888855,317.000000 390.200562,317.012085 410.512268,316.995789 
	C424.049561,316.984894 435.345490,310.935974 443.782043,301.313477 
	C457.370758,285.814514 460.319305,267.877167 453.210510,247.941391 
	C447.876709,232.983337 428.988129,218.544098 412.010254,218.904114 
	C392.519073,219.317444 373.012360,218.995239 353.512390,219.009750 
	C352.075470,219.010818 350.638702,219.150833 349.000000,219.236832 
	C349.000000,229.878433 349.000000,240.189224 349.000000,251.500000 
M110.962471,306.690796 
	C110.685081,306.275421 110.280800,305.896729 110.148430,305.439392 
	C102.084282,277.576080 94.075188,249.696671 85.887169,221.869904 
	C85.533585,220.668274 83.560043,219.136169 82.326164,219.122635 
	C65.694992,218.940231 49.061169,219.000320 32.437550,219.000320 
	C22.930136,251.670212 13.492921,284.098907 3.918222,317.000000 
	C13.799685,317.000000 23.432377,316.566254 32.999874,317.168396 
	C38.432850,317.510376 40.525799,315.076385 40.869827,310.617584 
	C41.128284,307.267944 42.743034,306.941772 45.381618,306.970978 
	C52.872623,307.053833 60.365143,307.000000 67.857063,307.000000 
	C76.739273,307.000000 76.735344,307.000580 78.096535,316.228455 
	C78.131493,316.465515 78.494255,316.654205 78.745522,316.907104 
	C90.334740,316.907104 101.962425,316.907104 113.646561,316.907104 
	C112.745506,313.711975 111.872833,310.617462 110.962471,306.690796 
M123.961670,294.581970 
	C141.031036,324.030396 184.696930,325.374115 203.229477,302.982208 
	C195.323288,295.055573 187.473221,287.185181 179.601669,279.293243 
	C170.877411,286.570526 161.413971,287.006744 154.705261,280.201263 
	C148.427658,273.833130 147.841568,263.477356 154.190872,255.856873 
	C156.474106,253.116562 160.419144,251.095352 163.969299,250.219574 
	C170.631332,248.576141 176.120605,252.242508 179.384842,254.813889 
	C188.118622,247.384338 196.405624,240.334839 204.631546,233.337296 
	C191.445053,218.645813 175.299820,214.515686 158.280228,217.345016 
	C137.098984,220.866119 122.917641,234.120972 117.454750,255.240738 
	C113.949387,268.792694 115.810242,281.957977 123.961670,294.581970 
M112.242241,115.955582 
	C112.907455,113.860168 113.572662,111.764755 114.390587,109.188301 
	C107.154343,108.232277 100.311020,107.328163 92.869324,106.344994 
	C91.816170,114.331070 90.745529,122.449699 89.625069,130.946152 
	C95.951241,131.686203 101.746277,131.707443 107.150009,133.172226 
	C113.117149,134.789749 118.625618,138.040695 124.538116,139.946533 
	C126.995255,140.738541 130.947266,140.942291 132.488846,139.527618 
	C134.538696,137.646530 135.314407,133.989410 135.797852,130.961258 
	C136.021561,129.559998 134.258926,127.841621 133.314011,126.115730 
	C139.014496,127.109444 139.014496,127.109444 141.772202,121.341515 
	C140.028519,120.535439 138.242935,119.808243 136.553131,118.902351 
	C134.710312,117.914429 132.965134,116.745888 131.161819,115.682503 
	C126.636368,113.013893 121.235535,113.353157 119.202240,116.418144 
	C115.660240,121.757408 116.191055,124.599052 121.470535,129.063538 
	C121.819626,129.358734 121.794930,130.095963 122.042053,130.976639 
	C119.154938,129.566528 116.737701,128.385895 114.278847,127.184952 
	C113.534752,128.161392 112.805962,129.117737 111.523170,130.801086 
	C111.144470,128.695404 110.912903,127.407845 110.739746,126.445038 
	C106.566582,125.778427 102.746155,125.168167 98.925728,124.557907 
	C98.979973,124.140572 99.034210,123.723236 99.088455,123.305893 
	C103.235512,123.811111 107.382568,124.316330 111.707703,124.843246 
	C111.955795,122.656967 112.201241,120.493950 112.489609,117.952652 
	C108.586388,117.268456 104.571236,116.564644 100.556084,115.860832 
	C100.614685,115.477028 100.673294,115.093224 100.731903,114.709412 
	C104.273361,115.138618 107.814819,115.567818 112.242241,115.955582 
M178.964783,170.794434 
	C177.898987,169.088806 178.035095,166.181000 174.605789,166.973572 
	C167.749680,168.558136 160.854279,169.972748 153.582947,171.542191 
	C154.165314,174.529892 154.684570,177.193848 155.134567,179.502441 
	C158.806091,178.917953 162.150589,178.385513 166.485199,177.695465 
	C161.679947,183.692810 153.393707,187.097519 159.174042,196.378601 
	C166.834000,194.822723 174.879288,193.188583 183.029755,191.533081 
	C182.514587,188.933472 182.024994,186.462997 181.484436,183.735245 
	C177.960007,184.156570 174.700790,184.546204 171.037949,184.984070 
	C178.993195,175.541687 178.993195,175.541687 178.964783,170.794434 
M160.461426,166.069870 
	C168.504303,162.469604 172.085693,157.890488 168.956390,149.181213 
	C166.904480,143.470520 161.369202,140.358749 155.046829,141.000839 
	C150.430969,141.469635 144.574356,146.594833 144.004593,150.664062 
	C142.554550,161.020142 149.258621,167.785767 160.461426,166.069870 
M87.000000,121.518105 
	C86.394958,114.252823 82.890617,109.012024 77.863914,109.125282 
	C72.558762,109.244812 67.256271,110.238029 62.003986,111.146553 
	C61.202419,111.285202 59.958382,113.184532 60.137875,114.001823 
	C61.763145,121.402153 63.659760,128.742874 65.431160,135.915894 
	C69.277733,135.205002 72.597000,134.640533 75.895088,133.971664 
	C82.411163,132.650208 86.588470,128.253479 87.000000,121.518105 
M143.524796,144.984009 
	C147.173370,140.676498 150.821930,136.368988 155.312271,131.067673 
	C151.911331,129.605972 148.003906,127.008316 147.226456,127.739357 
	C141.578903,133.049683 136.562180,139.030884 131.026367,145.153381 
	C133.945587,147.296539 135.999481,148.804413 138.440948,150.596817 
	C140.127533,148.709778 141.566650,147.099609 143.524796,144.984009 
z"/>
<path fill="#FFFFFF" opacity="1.000000" stroke="none" 
	d="
M501.000000,316.531342 
	C489.895752,317.000000 478.791504,317.000000 467.343750,317.000000 
	C467.343750,308.408539 467.343750,299.915070 467.343750,291.000000 
	C478.268372,291.000000 489.165527,291.000000 500.531342,291.000000 
	C501.000000,299.354218 501.000000,307.708466 501.000000,316.531342 
z"/>
<path fill="#FFFFFF" opacity="1.000000" stroke="none" 
	d="
M1.000000,184.449982 
	C5.482762,184.446625 9.965525,184.893250 15.810710,185.475601 
	C12.691139,182.681580 10.656839,180.859589 8.001195,178.481079 
	C11.691088,177.024246 14.275374,176.003937 17.522043,174.722107 
	C12.981189,172.676025 9.123899,170.937973 4.995299,169.077652 
	C5.795434,165.954666 6.530021,163.087509 7.265362,160.217422 
	C14.106814,163.240433 20.885553,166.149033 27.562136,169.275757 
	C28.611301,169.767090 30.079472,171.570206 29.843817,172.214325 
	C28.855076,174.916870 27.479530,177.538956 25.839769,179.909790 
	C25.251724,180.760010 23.519087,180.818558 21.611681,181.480286 
	C27.430441,184.657486 26.218021,189.156174 24.308315,194.377396 
	C16.967424,193.926422 9.427213,193.463211 1.443501,193.000000 
	C1.000000,190.299988 1.000000,187.599976 1.000000,184.449982 
z"/>
<path fill="#FFFFFF" opacity="1.000000" stroke="none" 
	d="
M290.801025,316.931274 
	C285.924622,309.980896 281.468048,303.093079 277.021332,296.198914 
	C276.158356,294.860962 275.333740,293.498230 274.347321,291.915741 
	C269.336426,300.280670 264.389404,308.538940 259.320984,316.999908 
	C250.018906,316.999908 240.524490,316.884277 231.035934,317.069519 
	C228.139893,317.126038 227.499969,315.561035 226.995926,313.372589 
	C221.000793,287.342834 215.010620,261.311951 208.969284,235.292923 
	C207.735886,229.980911 206.296005,224.716812 204.842239,219.001770 
	C216.477493,219.001770 227.780762,218.950119 239.081573,219.093506 
	C240.053680,219.105820 241.683304,220.264450 241.872986,221.137146 
	C245.467896,237.678329 248.891937,254.256668 252.675400,272.378510 
	C255.519180,268.777008 257.818726,265.994843 259.975311,263.105927 
	C264.231171,257.404846 268.569183,251.753250 272.537811,245.855484 
	C274.125183,243.496506 274.527374,243.064850 276.361938,245.690491 
	C281.370148,252.858322 286.737457,259.775818 291.987854,266.773468 
	C293.136444,268.304352 294.390442,269.756134 296.278534,272.087097 
	C298.331573,262.724396 300.175018,254.361450 301.997375,245.993912 
	C303.677094,238.281464 305.212494,230.533981 307.107819,222.875259 
	C307.470703,221.408859 309.184418,219.197617 310.321014,219.169144 
	C321.457245,218.890030 332.603180,219.000854 344.113800,219.000854 
	C341.943848,228.454086 339.887360,237.515244 337.781921,246.565033 
	C332.532257,269.129913 327.312836,291.702332 321.850708,314.215820 
	C321.561462,315.407990 319.164886,316.836548 317.713928,316.876678 
	C308.889740,317.120911 300.055328,316.994385 290.801025,316.931274 
z"/>
<path fill="#FFFFFF" opacity="1.000000" stroke="none" 
	d="
M349.000000,251.000000 
	C349.000000,240.189224 349.000000,229.878433 349.000000,219.236832 
	C350.638702,219.150833 352.075470,219.010818 353.512390,219.009750 
	C373.012360,218.995239 392.519073,219.317444 412.010254,218.904114 
	C428.988129,218.544098 447.876709,232.983337 453.210510,247.941391 
	C460.319305,267.877167 457.370758,285.814514 443.782043,301.313477 
	C435.345490,310.935974 424.049561,316.984894 410.512268,316.995789 
	C390.200562,317.012085 369.888855,317.000000 349.000000,317.000000 
	C349.000000,295.026306 349.000000,273.263153 349.000000,251.000000 
M383.000000,251.576782 
	C383.000000,264.651611 383.000000,277.726410 383.000000,291.431641 
	C391.153473,290.897888 398.811005,291.098053 406.181152,289.739410 
	C415.744934,287.976379 423.616150,276.598358 422.939331,266.554993 
	C422.420715,258.858856 420.069763,251.525620 412.392822,248.297745 
	C403.085510,244.384338 393.078247,244.604462 383.000000,245.211105 
	C383.000000,247.297546 383.000000,248.948685 383.000000,251.576782 
z"/>
<path fill="#FFFFFF" opacity="1.000000" stroke="none" 
	d="
M110.981308,307.106873 
	C111.872833,310.617462 112.745506,313.711975 113.646561,316.907104 
	C101.962425,316.907104 90.334740,316.907104 78.745522,316.907104 
	C78.494255,316.654205 78.131493,316.465515 78.096535,316.228455 
	C76.735344,307.000580 76.739273,307.000000 67.857063,307.000000 
	C60.365143,307.000000 52.872623,307.053833 45.381618,306.970978 
	C42.743034,306.941772 41.128284,307.267944 40.869827,310.617584 
	C40.525799,315.076385 38.432850,317.510376 32.999874,317.168396 
	C23.432377,316.566254 13.799685,317.000000 3.918222,317.000000 
	C13.492921,284.098907 22.930136,251.670212 32.437550,219.000320 
	C49.061169,219.000320 65.694992,218.940231 82.326164,219.122635 
	C83.560043,219.136169 85.533585,220.668274 85.887169,221.869904 
	C94.075188,249.696671 102.084282,277.576080 110.148430,305.439392 
	C110.280800,305.896729 110.685081,306.275421 110.981308,307.106873 
M49.466400,278.032318 
	C50.098045,278.687958 50.715347,279.895966 51.363583,279.912781 
	C57.097672,280.061676 62.837246,279.999237 68.626030,279.999237 
	C65.480171,268.091187 62.416714,256.495056 59.353256,244.898956 
	C58.969826,244.905823 58.586391,244.912689 58.202961,244.919556 
	C55.454597,255.715729 52.706238,266.511902 49.466400,278.032318 
z"/>
<path fill="#FFFFFF" opacity="1.000000" stroke="none" 
	d="
M123.723099,294.288177 
	C115.810242,281.957977 113.949387,268.792694 117.454750,255.240738 
	C122.917641,234.120972 137.098984,220.866119 158.280228,217.345016 
	C175.299820,214.515686 191.445053,218.645813 204.631546,233.337296 
	C196.405624,240.334839 188.118622,247.384338 179.384842,254.813889 
	C176.120605,252.242508 170.631332,248.576141 163.969299,250.219574 
	C160.419144,251.095352 156.474106,253.116562 154.190872,255.856873 
	C147.841568,263.477356 148.427658,273.833130 154.705261,280.201263 
	C161.413971,287.006744 170.877411,286.570526 179.601669,279.293243 
	C187.473221,287.185181 195.323288,295.055573 203.229477,302.982208 
	C184.696930,325.374115 141.031036,324.030396 123.723099,294.288177 
z"/>
<path fill="#FFFFFF" opacity="1.000000" stroke="none" 
	d="
M42.795052,146.445694 
	C38.928146,140.508575 35.061241,134.571472 31.081741,128.461487 
	C36.112976,125.279465 40.948589,121.862991 46.114738,119.054565 
	C51.280312,116.246452 55.283730,118.735748 56.084560,124.509041 
	C56.242500,125.647636 57.258087,126.998497 58.267082,127.632004 
	C63.369389,130.835571 63.636509,136.691437 58.667355,140.058609 
	C54.396736,142.952423 49.622910,145.306870 45.946671,148.816452 
	C42.388405,152.213379 39.945507,156.778992 37.014828,160.832825 
	C35.510059,162.914276 34.009895,164.999039 32.375957,167.264923 
	C25.736002,162.324600 19.268600,157.512650 12.440594,152.432404 
	C16.218723,147.134659 19.502741,141.952652 23.480942,137.373749 
	C24.427492,136.284271 27.696072,137.212204 30.406115,137.212204 
	C29.762623,139.963104 29.449938,141.299805 29.140839,142.621185 
	C29.600740,142.754807 30.051275,143.010086 30.170153,142.901688 
	C32.166962,141.080795 37.750072,142.162582 37.398613,144.442612 
	C36.655605,149.262772 40.098537,145.997116 41.622448,147.324448 
	C42.660385,147.683456 43.200031,147.723892 43.739677,147.764343 
	C43.424801,147.324799 43.109924,146.885239 42.795052,146.445694 
z"/>
<path fill="#FFFFFF" opacity="1.000000" stroke="none" 
	d="
M111.799255,115.976303 
	C107.814819,115.567818 104.273361,115.138618 100.731903,114.709412 
	C100.673294,115.093224 100.614685,115.477028 100.556084,115.860832 
	C104.571236,116.564644 108.586388,117.268456 112.489609,117.952652 
	C112.201241,120.493950 111.955795,122.656967 111.707703,124.843246 
	C107.382568,124.316330 103.235512,123.811111 99.088455,123.305893 
	C99.034210,123.723236 98.979973,124.140572 98.925728,124.557907 
	C102.746155,125.168167 106.566582,125.778427 110.739746,126.445038 
	C110.912903,127.407845 111.144470,128.695404 111.523170,130.801086 
	C112.805962,129.117737 113.534752,128.161392 114.278847,127.184952 
	C116.737701,128.385895 119.154938,129.566528 122.042053,130.976639 
	C121.794930,130.095963 121.819626,129.358734 121.470535,129.063538 
	C116.191055,124.599052 115.660240,121.757408 119.202240,116.418144 
	C121.235535,113.353157 126.636368,113.013893 131.161819,115.682503 
	C132.965134,116.745888 134.710312,117.914429 136.553131,118.902351 
	C138.242935,119.808243 140.028519,120.535439 141.772202,121.341515 
	C139.014496,127.109444 139.014496,127.109444 133.314011,126.115730 
	C134.258926,127.841621 136.021561,129.559998 135.797852,130.961258 
	C135.314407,133.989410 134.538696,137.646530 132.488846,139.527618 
	C130.947266,140.942291 126.995255,140.738541 124.538116,139.946533 
	C118.625618,138.040695 113.117149,134.789749 107.150009,133.172226 
	C101.746277,131.707443 95.951241,131.686203 89.625069,130.946152 
	C90.745529,122.449699 91.816170,114.331070 92.869324,106.344994 
	C100.311020,107.328163 107.154343,108.232277 114.390587,109.188301 
	C113.572662,111.764755 112.907455,113.860168 111.799255,115.976303 
z"/>
<path fill="#FFFFFF" opacity="1.000000" stroke="none" 
	d="
M178.981064,171.225433 
	C178.993195,175.541687 178.993195,175.541687 171.037949,184.984070 
	C174.700790,184.546204 177.960007,184.156570 181.484436,183.735245 
	C182.024994,186.462997 182.514587,188.933472 183.029755,191.533081 
	C174.879288,193.188583 166.834000,194.822723 159.174042,196.378601 
	C153.393707,187.097519 161.679947,183.692810 166.485199,177.695465 
	C162.150589,178.385513 158.806091,178.917953 155.134567,179.502441 
	C154.684570,177.193848 154.165314,174.529892 153.582947,171.542191 
	C160.854279,169.972748 167.749680,168.558136 174.605789,166.973572 
	C178.035095,166.181000 177.898987,169.088806 178.981064,171.225433 
z"/>
<path fill="#FFFFFF" opacity="1.000000" stroke="none" 
	d="
M160.161743,166.368500 
	C149.258621,167.785767 142.554550,161.020142 144.004593,150.664062 
	C144.574356,146.594833 150.430969,141.469635 155.046829,141.000839 
	C161.369202,140.358749 166.904480,143.470520 168.956390,149.181213 
	C172.085693,157.890488 168.504303,162.469604 160.161743,166.368500 
M155.080872,150.395096 
	C154.344879,150.965729 153.608871,151.536377 152.872879,152.107025 
	C158.730469,149.472382 157.866364,156.506027 160.883682,157.471008 
	C161.080933,151.002441 160.821640,150.627350 155.080872,150.395096 
z"/>
<path fill="#FFFFFF" opacity="1.000000" stroke="none" 
	d="
M87.000000,121.945328 
	C86.588470,128.253479 82.411163,132.650208 75.895088,133.971664 
	C72.597000,134.640533 69.277733,135.205002 65.431160,135.915894 
	C63.659760,128.742874 61.763145,121.402153 60.137875,114.001823 
	C59.958382,113.184532 61.202419,111.285202 62.003986,111.146553 
	C67.256271,110.238029 72.558762,109.244812 77.863914,109.125282 
	C82.890617,109.012024 86.394958,114.252823 87.000000,121.945328 
M74.846085,126.686928 
	C78.481735,124.475685 79.823273,120.798561 77.516533,118.145874 
	C75.407906,115.721001 72.667351,115.070969 70.101227,117.714035 
	C70.746384,120.083206 71.248276,122.426849 72.058968,124.658310 
	C72.385895,125.558205 73.388763,126.212532 74.846085,126.686928 
z"/>
<path fill="#FFFFFF" opacity="1.000000" stroke="none" 
	d="
M143.265289,145.236725 
	C141.566650,147.099609 140.127533,148.709778 138.440948,150.596817 
	C135.999481,148.804413 133.945587,147.296539 131.026367,145.153381 
	C136.562180,139.030884 141.578903,133.049683 147.226456,127.739357 
	C148.003906,127.008316 151.911331,129.605972 155.312271,131.067673 
	C150.821930,136.368988 147.173370,140.676498 143.265289,145.236725 
z"/>
<path fill="#000000" opacity="1.000000" stroke="none" 
	d="
M383.000000,251.088303 
	C383.000000,248.948685 383.000000,247.297546 383.000000,245.211105 
	C393.078247,244.604462 403.085510,244.384338 412.392822,248.297745 
	C420.069763,251.525620 422.420715,258.858856 422.939331,266.554993 
	C423.616150,276.598358 415.744934,287.976379 406.181152,289.739410 
	C398.811005,291.098053 391.153473,290.897888 383.000000,291.431641 
	C383.000000,277.726410 383.000000,264.651611 383.000000,251.088303 
z"/>
<path fill="#000000" opacity="1.000000" stroke="none" 
	d="
M49.712139,277.670197 
	C52.706238,266.511902 55.454597,255.715729 58.202961,244.919556 
	C58.586391,244.912689 58.969826,244.905823 59.353256,244.898956 
	C62.416714,256.495056 65.480171,268.091187 68.626030,279.999237 
	C62.837246,279.999237 57.097672,280.061676 51.363583,279.912781 
	C50.715347,279.895966 50.098045,278.687958 49.712139,277.670197 
z"/>
<path fill="#000000" opacity="1.000000" stroke="none" 
	d="
M42.570244,146.594040 
	C43.109924,146.885239 43.424801,147.324799 43.739677,147.764343 
	C43.200031,147.723892 42.660385,147.683456 42.024117,147.362610 
	C42.066811,146.968948 42.206127,146.855667 42.570244,146.594040 
z"/>
<path fill="#000000" opacity="1.000000" stroke="none" 
	d="
M155.440796,150.211639 
	C160.821640,150.627350 161.080933,151.002441 160.883682,157.471008 
	C157.866364,156.506027 158.730469,149.472382 152.872879,152.107025 
	C153.608871,151.536377 154.344879,150.965729 155.440796,150.211639 
z"/>
<path fill="#000000" opacity="1.000000" stroke="none" 
	d="
M74.465050,126.832771 
	C73.388763,126.212532 72.385895,125.558205 72.058968,124.658310 
	C71.248276,122.426849 70.746384,120.083206 70.101227,117.714035 
	C72.667351,115.070969 75.407906,115.721001 77.516533,118.145874 
	C79.823273,120.798561 78.481735,124.475685 74.465050,126.832771 
z"/>
</svg>